<svg xmlns="http://www.w3.org/2000/svg" fill="#f2c911" viewBox="0 0 700 700" width="700" height="700"><path class="cls-1" d="M228.55 562.03c0 22.61-18.55 43.19-43.19 43.19s-43.19-18.55-43.19-43.19V376.67c0-22.61 18.55-43.19 43.19-43.19s43.19 18.55 43.19 43.19zm125.51 49.42c0 22.61-20.58 43.19-45.22 43.19s-41.09-18.55-41.09-43.19V329.42c0-22.61 18.55-43.19 43.19-43.19s43.19 18.55 43.19 43.19v282.03Zm-251.09-90.51c0 22.61-18.55 43.19-43.19 43.19s-43.19-18.55-43.19-43.19V420c0-22.61 18.55-43.19 43.19-43.19s43.19 20.58 43.19 43.19zm374.64 135.87c0 22.61-20.58 43.19-45.22 43.19s-41.09-20.58-41.09-43.19V282.17c0-22.61 18.55-43.19 43.19-43.19s43.19 18.55 43.19 43.19v374.64Z"/><path class="cls-1" d="M611.45 638.26c-8.19 0-14.42-2.1-22.61-4.13l-51.45-16.45c-7.7-1.96-13.72-11.27-10.92-19.18s.7-1.82.98-2.73c2.59-7 11.27-12.18 18.69-9.59s3.01 1.12 4.48 1.54l49.42 15.19c.7.21 1.4.49 2.1.7 9.45 3.29 20.3 1.68 29.82-4.97s2.66-1.82 3.99-2.8c8.96-6.44 12.6-17.92 12.6-27.65v-343.7c0-16.45-10.36-30.94-24.64-35L119.42 37.03c-5.18-2.03-10.85-2.52-16.45-1.82-11.27 1.54-20.93 8.75-26.25 18.83-2.87 5.39-4.62 11.41-4.62 17.99v236.81c0 10.36-8.19 16.45-16.45 16.45S39.2 317.1 39.2 308.84V72.03c0-22.61 10.36-43.19 28.84-55.58C86.45 2.03 109.06 0 129.64 6.09l502.39 152.39c28.84 8.19 49.42 37.03 49.42 67.97v343.91c0 1.26 0 2.59-.07 3.85-1.47 27.86-20.58 51.8-47.25 60.06-7.35 2.31-15.05 3.99-22.68 3.99"/></svg>